HIERARCHY
ROOT Hips
{
	OFFSET 0.00 0.00 0.00
	CHANNELS 6 Xposition Yposition Zposition Zrotation Xrotation Yrotation
		JOINT Spine
		{
			OFFSET 0.00 10.00 0.00
			CHANNELS 3 Zrotation Xrotation Yrotation
			JOINT Spine1
			{
				OFFSET 0.00 10.00 0.00
				CHANNELS 3 Zrotation Xrotation Yrotation
				JOINT Spine2
				{
					OFFSET 0.00 10.00 0.00
					CHANNELS 3 Zrotation Xrotation Yrotation
					JOINT Neck
					{
						OFFSET 0.00 10.00 0.00
						CHANNELS 3 Zrotation Xrotation Yrotation
						JOINT Head
						{
							OFFSET 0.00 10.00 0.00
							CHANNELS 3 Zrotation Xrotation Yrotation
						End Site
						{
							OFFSET 0.00 0.00 0.00
						}
					}
					End Site
					{
						OFFSET 0.00 0.00 0.00
					}
				}
					JOINT LeftArm
					{
						OFFSET 10.00 0.00 0.00
						CHANNELS 3 Zrotation Xrotation Yrotation
						JOINT LeftForeArm
						{
							OFFSET 20.00 0.00 0.00
							CHANNELS 3 Zrotation Xrotation Yrotation
							JOINT LeftHand
							{
								OFFSET 20.00 0.00 0.00
								CHANNELS 3 Zrotation Xrotation Yrotation
							End Site
							{
								OFFSET 0.00 0.00 0.00
							}
						}
						End Site
						{
							OFFSET 0.00 0.00 0.00
						}
					}
					End Site
					{
						OFFSET 0.00 0.00 0.00
					}
				}
					JOINT RightArm
					{
						OFFSET -10.00 0.00 0.00
						CHANNELS 3 Zrotation Xrotation Yrotation
						JOINT RightForeArm
						{
							OFFSET -20.00 0.00 0.00
							CHANNELS 3 Zrotation Xrotation Yrotation
							JOINT RightHand
							{
								OFFSET -20.00 0.00 0.00
								CHANNELS 3 Zrotation Xrotation Yrotation
							End Site
							{
								OFFSET 0.00 0.00 0.00
							}
						}
						End Site
						{
							OFFSET 0.00 0.00 0.00
						}
					}
					End Site
					{
						OFFSET 0.00 0.00 0.00
					}
				}
				End Site
				{
					OFFSET 0.00 0.00 0.00
				}
			}
			End Site
			{
				OFFSET 0.00 0.00 0.00
			}
		}
		End Site
		{
			OFFSET 0.00 0.00 0.00
		}
	}
		JOINT LeftUpLeg
		{
			OFFSET 5.00 -10.00 0.00
			CHANNELS 3 Zrotation Xrotation Yrotation
			JOINT LeftLeg
			{
				OFFSET 0.00 -20.00 0.00
				CHANNELS 3 Zrotation Xrotation Yrotation
				JOINT LeftFoot
				{
					OFFSET 0.00 -20.00 0.00
					CHANNELS 3 Zrotation Xrotation Yrotation
					JOINT LeftToeBase
					{
						OFFSET 0.00 -5.00 5.00
						CHANNELS 3 Zrotation Xrotation Yrotation
					End Site
					{
						OFFSET 0.00 0.00 0.00
					}
				}
				End Site
				{
					OFFSET 0.00 0.00 0.00
				}
			}
			End Site
			{
				OFFSET 0.00 0.00 0.00
			}
		}
		End Site
		{
			OFFSET 0.00 0.00 0.00
		}
	}
		JOINT RightUpLeg
		{
			OFFSET -5.00 -10.00 0.00
			CHANNELS 3 Zrotation Xrotation Yrotation
			JOINT RightLeg
			{
				OFFSET 0.00 -20.00 0.00
				CHANNELS 3 Zrotation Xrotation Yrotation
				JOINT RightFoot
				{
					OFFSET 0.00 -20.00 0.00
					CHANNELS 3 Zrotation Xrotation Yrotation
					JOINT RightToeBase
					{
						OFFSET 0.00 -5.00 5.00
						CHANNELS 3 Zrotation Xrotation Yrotation
					End Site
					{
						OFFSET 0.00 0.00 0.00
					}
				}
				End Site
				{
					OFFSET 0.00 0.00 0.00
				}
			}
			End Site
			{
				OFFSET 0.00 0.00 0.00
			}
		}
		End Site
		{
			OFFSET 0.00 0.00 0.00
		}
	}
	End Site
	{
		OFFSET 0.00 0.00 0.00
	}
}
MOTION
Frames: 12
Frame Time: 0.034483
9.1879 -1.8860 -1.5664 167.8572 69.8131 -8.4893 -11.0251 11.0664 -1.0713 -11.0251 11.0664 -1.0713 88.7321 -13.7668 -13.4683 56.0450 51.5843 28.8468 -55.0988 -36.0366 19.2607 99.2370 -11.9329 10.1592 0.0000 0.0000 0.0000 0.0000 0.0000 0.0000 36.9509 10.8293 -31.6762 0.0000 0.0000 0.0000 0.0000 0.0000 0.0000 36.7000 -58.7143 -21.1362 -69.7362 29.1589 -20.5446 -81.8242 39.1147 -34.2224 177.2366 178.1748 -66.8814 -82.4858 -16.8910 14.8341 0.0000 0.0000 0.0000 0.0000 0.0000 0.0000 0.0000 0.0000 0.0000
9.1881 -1.8711 -1.5716 167.9436 70.5188 -8.5393 -10.9597 11.7344 -1.1296 -10.9597 11.7344 -1.1296 88.2804 -13.6495 -13.2495 55.6990 52.6252 29.2846 -53.9605 -36.2788 18.9377 99.0310 -12.6962 10.8496 0.0000 0.0000 0.0000 0.0000 0.0000 0.0000 30.9171 10.1121 -35.4820 0.0000 0.0000 0.0000 0.0000 0.0000 0.0000 36.7203 -58.7917 -21.1812 -69.6924 28.9671 -20.3902 -81.9192 39.0077 -34.1810 177.7998 178.5434 -67.0087 -82.4757 -16.9670 14.8984 0.0000 0.0000 0.0000 0.0000 0.0000 0.0000 0.0000 0.0000 0.0000
9.1863 -1.8603 -1.5668 168.0095 70.6894 -8.5192 -10.9788 11.4432 -1.1033 -10.9788 11.4432 -1.1033 88.2221 -13.8411 -13.4221 55.6083 52.9290 29.4177 -52.8968 -36.7058 18.7419 98.9730 -12.0416 10.2996 0.0000 0.0000 0.0000 0.0000 0.0000 0.0000 33.9010 10.2308 -32.7360 0.0000 0.0000 0.0000 0.0000 0.0000 0.0000 36.9321 -58.6395 -21.2446 -69.6894 28.9098 -20.3478 -82.0245 38.8984 -34.1430 178.1956 178.8034 -67.0998 -82.8225 -16.3078 14.4045 0.0000 0.0000 0.0000 0.0000 0.0000 0.0000 0.0000 0.0000 0.0000
9.1829 -1.8466 -1.5654 168.0902 71.0504 -8.5181 -10.9891 11.2964 -1.0901 -10.9891 11.2964 -1.0901 88.3157 -13.8529 -13.4553 55.2489 53.4243 29.5074 -51.8341 -37.4495 18.7071 98.9159 -11.8069 10.1086 0.0000 0.0000 0.0000 0.0000 0.0000 0.0000 0.0000 0.0000 0.0000 0.0000 0.0000 0.0000 0.0000 0.0000 0.0000 37.0748 -58.5214 -21.2804 -69.6128 28.8755 -20.2948 -82.0765 38.8139 -34.0969 178.8092 179.2086 -67.2133 -82.9891 -16.0070 14.1791 0.0000 0.0000 0.0000 0.0000 0.0000 0.0000 0.0000 0.0000 0.0000
9.1737 -1.8335 -1.5640 168.1607 71.3998 -8.5220 -11.0062 11.2186 -1.0843 -11.0062 11.2186 -1.0843 89.1641 -13.6909 -13.4945 54.7760 54.1637 29.6749 -50.6705 -38.1438 18.5923 98.9275 -11.6348 9.9590 0.0000 0.0000 0.0000 0.0000 0.0000 0.0000 0.0000 0.0000 0.0000 0.0000 0.0000 0.0000 0.0000 0.0000 0.0000 37.0831 -58.4824 -21.2688 -69.4992 28.8735 -20.2514 -82.1001 38.8024 -34.1000 179.8738 179.9160 -67.2702 -83.2285 -15.4081 13.7041 0.0000 0.0000 0.0000 0.0000 0.0000 0.0000 0.0000 0.0000 0.0000
9.1810 -1.8205 -1.5731 168.2358 72.2283 -8.5972 -10.9414 12.7206 -1.2233 -10.9414 12.7206 -1.2233 88.8604 -13.6634 -13.3968 54.5820 55.4296 30.3307 -50.7274 -37.5508 18.3096 98.8862 -13.3160 11.4095 0.0000 0.0000 0.0000 0.0000 0.0000 0.0000 0.0000 0.0000 0.0000 0.0000 0.0000 0.0000 0.0000 0.0000 0.0000 37.2786 -58.6038 -21.4384 -69.4389 28.3704 -19.8691 -82.6098 38.1539 -33.8051 -179.8735 -179.9159 -67.2329 -83.2443 -15.3728 13.6765 0.0000 0.0000 0.0000 0.0000 0.0000 0.0000 0.0000 0.0000 0.0000
9.2426 -1.8180 -1.6459 168.3244 75.5846 -9.0665 -10.8095 14.2253 -1.3528 -10.8095 14.2253 -1.3528 87.8231 -12.1577 -11.7075 53.2444 57.0304 30.4676 -51.3031 -38.1415 18.8524 98.5263 -16.1278 13.9139 0.0000 0.0000 0.0000 0.0000 0.0000 0.0000 0.0000 0.0000 0.0000 0.0000 0.0000 0.0000 0.0000 0.0000 0.0000 37.3270 -58.6388 -21.4827 -69.4968 27.8419 -19.5119 -83.4265 37.1358 -33.3383 178.8237 179.2050 -68.1063 -82.8442 -16.1986 14.3132 0.0000 0.0000 0.0000 0.0000 0.0000 0.0000 0.0000 0.0000 0.0000
9.3033 -1.8153 -1.7072 168.4060 78.2740 -9.4455 -10.7459 15.1436 -1.4326 -10.7459 15.1436 -1.4326 87.1589 -11.5439 -10.9887 52.5069 57.8418 30.4867 -51.8736 -38.4168 19.2350 98.0646 -17.3237 15.0703 0.0000 0.0000 0.0000 0.0000 0.0000 0.0000 0.0000 0.0000 0.0000 0.0000 0.0000 0.0000 0.0000 0.0000 0.0000 37.4063 -58.6413 -21.5316 -69.7456 27.2416 -19.1699 -84.2213 36.2511 -32.9658 177.6236 178.3660 -69.0196 -82.3149 -17.1658 15.0314 0.0000 0.0000 0.0000 0.0000 0.0000 0.0000 0.0000 0.0000 0.0000
9.3128 -1.8015 -1.7548 168.4830 80.4429 -9.7494 -10.7237 14.9334 -1.4095 -10.7237 14.9334 -1.4095 87.2267 -11.3578 -10.8242 52.7538 58.2272 30.8771 -51.1041 -38.4355 18.9233 97.7208 -16.6562 14.5746 0.0000 0.0000 0.0000 0.0000 0.0000 0.0000 0.0000 0.0000 0.0000 0.0000 0.0000 0.0000 0.0000 0.0000 0.0000 37.3946 -58.6572 -21.5313 -69.8532 27.0440 -19.0655 -84.3717 36.1123 -32.9200 177.5208 178.2942 -69.0559 -81.9737 -17.4642 15.2032 0.0000 0.0000 0.0000 0.0000 0.0000 0.0000 0.0000 0.0000 0.0000
9.3217 -1.7905 -1.7734 168.5480 81.4140 -9.8613 -10.7223 14.7896 -1.3956 -10.7223 14.7896 -1.3956 87.3662 -11.4072 -10.8977 52.7709 58.3314 30.9510 -50.6474 -38.6298 18.8337 97.2495 -16.2700 14.3530 0.0000 0.0000 0.0000 0.0000 0.0000 0.0000 0.0000 0.0000 0.0000 0.0000 0.0000 0.0000 0.0000 0.0000 0.0000 37.5113 -58.5490 -21.5553 -69.8675 26.9719 -19.0187 -84.3807 36.1171 -32.9294 177.5115 178.2849 -69.1443 -81.9054 -17.5498 15.2597 0.0000 0.0000 0.0000 0.0000 0.0000 0.0000 0.0000 0.0000 0.0000
9.3257 -1.7674 -1.7862 168.6731 82.5330 -9.9466 -10.6798 14.9918 -1.4093 -10.6798 14.9918 -1.4093 88.9789 -10.8815 -10.6904 52.0512 59.4404 31.1507 -48.7584 -39.2858 18.3764 97.1150 -16.6199 14.6969 0.0000 0.0000 0.0000 0.0000 0.0000 0.0000 0.0000 0.0000 0.0000 0.0000 0.0000 0.0000 0.0000 0.0000 0.0000 37.4959 -58.2044 -21.3979 -69.9628 27.1838 -19.2044 -84.3395 36.3231 -33.0968 178.2253 178.7719 -69.3665 -81.6888 -17.4682 15.1313 0.0000 0.0000 0.0000 0.0000 0.0000 0.0000 0.0000 0.0000 0.0000
9.3438 -1.7380 -1.8578 168.8397 85.9504 -10.4024 -10.6311 15.2965 -1.4316 -10.6311 15.2965 -1.4316 90.3564 -9.8845 -9.9458 51.3779 60.7530 31.4919 -47.2179 -38.9266 17.5612 97.0713 -17.2425 15.2609 0.0000 0.0000 0.0000 0.0000 0.0000 0.0000 0.0000 0.0000 0.0000 0.0000 0.0000 0.0000 0.0000 0.0000 0.0000 37.5473 -57.7547 -21.2358 -70.1701 27.1857 -19.2784 -84.5925 36.2817 -33.1976 178.4687 178.9359 -69.5884 -81.4005 -17.4228 15.0161 0.0000 0.0000 0.0000 0.0000 0.0000 0.0000 0.0000 0.0000 0.0000
